<svg viewBox="0 0 40 40" fill="none" xmlns="http://www.w3.org/2000/svg">
  <defs>
    <linearGradient id="logoGradient" x1="8" y1="6" x2="34" y2="36" gradientUnits="userSpaceOnUse">
      <stop stop-color="#34D399"/>
      <stop offset="1" stop-color="#10B981"/>
    </linearGradient>
  </defs>
  <rect x="2" y="2" width="36" height="36" rx="11" fill="#10B981" fill-opacity="0.12"/>
  <path d="M10 8h20a4 4 0 0 1 4 4v11a4 4 0 0 1-4 4h-11l-5.5 4.1a1.2 1.2 0 0 1-1.9-1V27H10a4 4 0 0 1-4-4V12a4 4 0 0 1 4-4Z" fill="url(#logoGradient)"/>
  <rect x="14" y="12" width="14" height="12" rx="2" fill="#022C22" fill-opacity="0.28"/>
  <circle cx="17" cy="16" r="1.3" fill="#ECFDF5"/>
  <rect x="20" y="15.1" width="6.5" height="1.6" rx="0.8" fill="#ECFDF5"/>
  <circle cx="17" cy="20" r="1.3" fill="#D1FAE5" fill-opacity="0.9"/>
  <rect x="20" y="19.1" width="5.5" height="1.6" rx="0.8" fill="#D1FAE5" fill-opacity="0.9"/>
  <circle cx="17" cy="24" r="1.3" fill="#A7F3D0" fill-opacity="0.85"/>
  <rect x="20" y="23.1" width="7" height="1.6" rx="0.8" fill="#A7F3D0" fill-opacity="0.85"/>
  <path d="M29.5 28.5 32 31l2.5-2.5M32 31V25.5" stroke="#022C22" stroke-width="1.8" stroke-linecap="round" stroke-linejoin="round"/>
</svg>
